<?xml version="1.0" encoding="UTF-8"?>
<svg width="600px" height="600px" viewBox="0 0 600 600" version="1.1" xmlns="http://www.w3.org/2000/svg" xmlns:xlink="http://www.w3.org/1999/xlink">
    <title>Now_Dark_Text_Vertical</title>
    <g id="Now_Dark_Text_Vertical" stroke="none" stroke-width="1" fill="none" fill-rule="evenodd">
        <g id="编组-2备份-3" transform="translate(195.000000, 126.000000)" fill="#FFFFFF">
            <path d="M11.640447,0.0608932855 C18.0065977,0.0608932855 23.1781005,5.0834057 23.280894,11.3158769 L23.2788781,220.842211 C23.1242478,227.029621 17.9734711,232 11.640447,232 C5.27429629,232 0.102793442,226.977488 0,220.745016 L0.00201586222,11.2186828 C0.156646143,5.0312719 5.30742287,0.0608932855 11.640447,0.0608932855 Z" id="形状" fill-rule="nonzero"></path>
            <path d="M199.357994,0.299653172 C205.724144,0.299653172 210.895647,5.32216559 211,11.5546368 L211,220.703139 C211,226.930342 205.968366,231.875764 199.722966,231.97683 C193.034521,231.664927 187.77214,226.151426 187.77214,219.455712 L187.77214,10.6127332 L187.77214,10.6127332 C188.349958,4.8238277 193.315919,0.299653172 199.357994,0.299653172 Z" id="路径" fill-rule="nonzero"></path>
            <path d="M52.4095507,33.4092902 L166.599321,149.18774 C167.669746,150.273057 168.269868,151.736154 168.269868,153.26053 L168.269868,196.915463 C168.269868,200.118714 165.673119,202.715463 162.469868,202.715463 C160.867003,202.715463 159.3356,202.052148 158.239157,200.882967 L44.1474869,79.2223885 C43.1428532,78.1511068 42.5820312,76.7385928 42.578217,75.2699476 L42.4801172,37.4971432 C42.471798,34.2939025 45.0617937,31.6904188 48.2650345,31.6820996 C49.8223978,31.678055 51.3159584,32.3004832 52.4095507,33.4092902 Z" id="路径" fill-rule="nonzero"></path>
            <path d="M142.663487,231.939094 L49.1214049,231.184076 C45.4541178,231.184076 42.4729126,228.336706 42.4423973,224.80573 L42.44348,124.815329 C42.4136541,121.264064 45.379384,118.361913 49.0676233,118.33278 C50.9873357,118.318247 52.8208858,119.099474 54.1004081,120.477531 L147.642267,221.22295 C150.100544,223.870536 149.864295,227.935646 147.114591,230.302627 C145.890316,231.356499 144.305687,231.939094 142.663487,231.939094 Z" id="路径-11备份"></path>
            <path d="M66.2269703,0 L161.499641,0 C165.188001,0 168.178007,2.87896372 168.178007,6.43034545 L168.178007,107.515921 C168.178007,111.067303 165.188001,113.946267 161.499641,113.946267 C159.616008,113.946267 157.819965,113.180353 156.554118,111.837272 L61.2814477,10.7516959 C58.8027791,8.12179536 59.0076071,4.0551053 61.7389438,1.66848937 C62.9677282,0.5947893 64.5676366,0 66.2269703,0 Z" id="路径-11备份-2"></path>
        </g>
        <path d="M162.637336,492.118881 L162.637336,431.825175 L202.573303,492.118881 L220.210639,492.118881 L220.210639,404.132867 L202.573303,404.132867 L202.573303,464.552448 L162.637336,404.132867 L145,404.132867 L145,492.118881 L162.637336,492.118881 Z M278.678407,493 C286.909164,493 294.468022,491.06993 301.354982,487.20979 C308.241942,483.34965 313.68012,478 317.669518,471.160839 C321.658915,464.321678 323.653614,456.58042 323.653614,447.937063 C323.653614,439.377622 321.658915,431.678322 317.669518,424.839161 C313.68012,418 308.262938,412.65035 301.417972,408.79021 C294.573006,404.93007 286.993151,403 278.678407,403 C270.447651,403 262.888792,404.93007 256.001833,408.79021 C249.114873,412.65035 243.655698,418 239.624307,424.839161 C235.592916,431.678322 233.57722,439.377622 233.57722,447.937063 C233.57722,456.58042 235.592916,464.321678 239.624307,471.160839 C243.655698,478 249.114873,483.34965 256.001833,487.20979 C262.888792,491.06993 270.447651,493 278.678407,493 Z M278.678407,477.265734 C273.387207,477.265734 268.704914,476.06993 264.631529,473.678322 C260.558144,471.286713 257.387623,467.867133 255.119966,463.41958 C252.852308,458.972028 251.71848,453.811189 251.71848,447.937063 C251.71848,442.062937 252.852308,436.923077 255.119966,432.517483 C257.387623,428.111888 260.558144,424.734266 264.631529,422.384615 C268.704914,420.034965 273.387207,418.86014 278.678407,418.86014 C283.969608,418.86014 288.630904,420.034965 292.662295,422.384615 C296.693686,424.734266 299.84321,428.111888 302.110868,432.517483 C304.378525,436.923077 305.512354,442.062937 305.512354,447.937063 C305.512354,453.811189 304.378525,458.972028 302.110868,463.41958 C299.84321,467.867133 296.693686,471.286713 292.662295,473.678322 C288.630904,476.06993 283.969608,477.265734 278.678407,477.265734 Z M354.783511,492.244755 L375.44439,492.118881 L392.703783,429.559441 L409.20729,492.118881 L429.99415,492.118881 L454.56044,404.258741 L435.537313,404.258741 L419.915673,472.104895 L403.034223,404.258741 L383.381191,404.258741 L365.491894,472.482517 L349.996234,404.258741 L331.099089,404.258741 L354.783511,492.244755 Z" id="NOW" fill="#FFFFFF" fill-rule="nonzero"></path>
    </g>
</svg>