<?xml version="1.0" encoding="UTF-8"?>
<svg width="600px" height="600px" viewBox="0 0 600 600" version="1.1" xmlns="http://www.w3.org/2000/svg" xmlns:xlink="http://www.w3.org/1999/xlink">
    <title>Now_Light_MulitColors_Text</title>
    <g id="Now_Light_MulitColors_Text" stroke="none" stroke-width="1" fill="none" fill-rule="evenodd">
        <g id="编组-2备份-3" transform="translate(183.857143, 105.000000)">
            <path d="M212.629268,232.26251 C210.267304,232.26251 208.072143,231.559286 206.247942,230.353868 C205.171262,229.570917 204.423978,228.96249 204.006091,228.528586 L45.0924044,56.6478976 L43.4378305,54.8193512 C42.9328921,54.2613204 42.6413332,53.5490675 42.6104962,52.8049885 L42.6077705,52.673375 L42.6077705,27.9123525 C42.6077705,27.0047934 42.9960208,26.1392167 43.6772864,25.5279417 C44.9867935,24.3529685 47.0007001,24.4193493 48.2281033,25.658897 L48.3053657,25.7396097 L192.34016,181.38384 C195.92194,185.102704 202.88063,184.362845 205.783778,181.922113 C208.009401,180.05099 208.961703,177.642936 209.001219,175.003014 L209.002505,174.830519 L209.00608,11.4135803 C209.160705,5.21692299 214.311304,0.239116687 220.64411,0.239116687 C227.010041,0.239116687 232.181365,5.2691347 232.285714,11.5109196 L232.285714,220.971971 C232.285714,227.208481 227.254254,232.161293 221.009069,232.26251 L212.629268,232.26251 Z M11.6400451,0 C18.005976,0 23.1773003,5.03001801 23.2800902,11.2718029 L23.2780744,221.111251 C23.1234495,227.307908 17.9728506,232.285714 11.6400451,232.285714 C5.27411419,232.285714 0.102789893,227.255696 0,221.013911 L0.00201579262,11.1744636 C0.156640735,4.9778063 5.30723964,0 11.6400451,0 Z" id="形状" fill="#009191" fill-rule="nonzero"></path>
            <path d="M160.50408,232.224718 L51.3058671,232.224718 C46.9856983,232.224718 43.4737535,228.795092 43.4388184,224.54207 L42.4417917,103.195324 C42.4069186,98.9178636 45.900633,95.4222555 50.245484,95.3874109 C52.50696,95.3696602 54.6669344,96.3106398 56.1742481,97.9704941 L166.369225,219.31724 C169.265145,222.506228 168.986838,227.402608 165.747607,230.253611 C164.305377,231.522988 162.438639,232.224718 160.50408,232.224718 Z" id="路径-11备份" fill="#FFCC66"></path>
            <path d="M70.4596841,0 L182.693607,0 C187.0386,0 190.560913,3.46768005 190.560913,7.74528018 L190.560913,129.501742 C190.560913,133.779342 187.0386,137.247022 182.693607,137.247022 C180.474634,137.247022 178.358844,136.324487 176.86764,134.706761 L64.6337174,12.9502991 C61.7137752,9.78261295 61.9550684,4.88432961 65.1726609,2.00967705 C66.620204,0.716417153 68.5049417,0 70.4596841,0 Z" id="路径-11备份-2" fill="#FF6666"></path>
        </g>
        <text id="Now" font-family="Poppins-SemiBold, Poppins" font-size="128.571429" font-weight="500" fill="#009191">
            <tspan x="157.285714" y="492.857143">Now</tspan>
        </text>
    </g>
</svg>